<svg xmlns="http://www.w3.org/2000/svg" width="29.855" height="51.417" viewBox="0 0 29.855 51.417">
  <g id="smartphone" transform="translate(-14 -1)">
    <path id="Path_55" data-name="Path 55" d="M37.221,1H20.634A6.642,6.642,0,0,0,14,7.634V45.782a6.642,6.642,0,0,0,6.634,6.634H37.221a6.642,6.642,0,0,0,6.634-6.634V7.634A6.642,6.642,0,0,0,37.221,1ZM15.659,9.293H42.2V40.807H15.659Zm4.976-6.634H37.221A4.981,4.981,0,0,1,42.2,7.634H15.659a4.981,4.981,0,0,1,4.976-4.976Zm16.586,48.1H20.634a4.981,4.981,0,0,1-4.976-4.976V42.465H42.2v3.317A4.981,4.981,0,0,1,37.221,50.758Z" transform="translate(0)" fill="#0664ed"/>
    <path id="Path_56" data-name="Path 56" d="M31.488,53a2.488,2.488,0,1,0,2.488,2.488A2.488,2.488,0,0,0,31.488,53Zm0,3.317a.829.829,0,1,1,.829-.829A.829.829,0,0,1,31.488,56.317Z" transform="translate(-2.56 -8.876)" fill="#0664ed"/>
    <path id="Path_57" data-name="Path 57" d="M33.805,5H28.829a.829.829,0,1,0,0,1.659h4.976a.829.829,0,0,0,0-1.659Z" transform="translate(-2.39 -0.683)" fill="#0664ed"/>
  </g>
</svg>
