<svg id="Group_25" data-name="Group 25" xmlns="http://www.w3.org/2000/svg" width="72.82" height="51.417" viewBox="0 0 72.82 51.417">
  <g id="Group_11" data-name="Group 11" transform="translate(5.112)">
    <g id="Group_10" data-name="Group 10">
      <g id="Group_5" data-name="Group 5">
        <g id="Group_1" data-name="Group 1" transform="translate(10.185 38.566)">
          <path id="Path_38" data-name="Path 38" d="M361.19,1047.1H332.4a1,1,0,1,1,0-2h28.79a1,1,0,0,1,0,2Z" transform="translate(-331.4 -1045.1)" fill="#0664ed"/>
        </g>
        <g id="Group_2" data-name="Group 2">
          <path id="Path_39" data-name="Path 39" d="M118.4,257.988a1,1,0,0,1-1-1V238.351a3.557,3.557,0,0,1,3.551-3.551h50.465a3.557,3.557,0,0,1,3.551,3.551v11.375a1,1,0,1,1-2,0V238.351a1.552,1.552,0,0,0-1.552-1.552H120.951a1.552,1.552,0,0,0-1.552,1.552v18.638A1,1,0,0,1,118.4,257.988Z" transform="translate(-117.4 -234.8)" fill="#0664ed"/>
        </g>
        <g id="Group_3" data-name="Group 3" transform="translate(10.185 30.051)">
          <path id="Path_40" data-name="Path 40" d="M361.19,868.2H332.4a1,1,0,1,1,0-2h28.79a1,1,0,1,1,0,2Z" transform="translate(-331.4 -866.2)" fill="#0664ed"/>
        </g>
        <g id="Group_4" data-name="Group 4" transform="translate(27.548 34.073)">
          <circle id="Ellipse_6" data-name="Ellipse 6" cx="1.233" cy="1.233" r="1.233" fill="#0664ed"/>
        </g>
      </g>
      <g id="Group_8" data-name="Group 8" transform="translate(23.688 38.566)">
        <g id="Group_6" data-name="Group 6">
          <path id="Path_41" data-name="Path 41" d="M616.1,1052.553a1,1,0,0,1-1-1V1046.1a1,1,0,1,1,2,0v5.454A1,1,0,0,1,616.1,1052.553Z" transform="translate(-615.1 -1045.1)" fill="#0664ed"/>
        </g>
        <g id="Group_7" data-name="Group 7" transform="translate(8.191)">
          <path id="Path_42" data-name="Path 42" d="M788.2,1052.553a1,1,0,0,1-1-1V1046.1a1,1,0,1,1,2,0v5.454A1,1,0,0,1,788.2,1052.553Z" transform="translate(-787.2 -1045.1)" fill="#0664ed"/>
        </g>
      </g>
      <g id="Group_9" data-name="Group 9" transform="translate(13.398 44.316)">
        <path id="Path_43" data-name="Path 43" d="M426.429,1173H399.9a1,1,0,0,1-1-1v-.638a5.47,5.47,0,0,1,5.464-5.464h19.847a5.484,5.484,0,0,1,1.552.224,1,1,0,0,1-.566,1.918,3.425,3.425,0,0,0-.985-.143H404.364a3.468,3.468,0,0,0-3.446,3.1h25.511a1,1,0,1,1,0,2Z" transform="translate(-398.9 -1165.9)" fill="#0664ed"/>
      </g>
    </g>
  </g>
  <g id="Group_19" data-name="Group 19" transform="translate(0 21.189)">
    <g id="Group_18" data-name="Group 18">
      <g id="Group_17" data-name="Group 17">
        <g id="Group_13" data-name="Group 13">
          <path id="Path_44" data-name="Path 44" d="M25.54,710.227H11.756A1.758,1.758,0,0,1,10,708.471V681.756A1.758,1.758,0,0,1,11.756,680H25.535a1.758,1.758,0,0,1,1.756,1.756v26.71A1.752,1.752,0,0,1,25.54,710.227Zm-13.541-2H25.3V682H12Z" transform="translate(-10 -680)" fill="#0664ed"/>
        </g>
        <g id="Group_16" data-name="Group 16" transform="translate(0 4.117)">
          <g id="Group_14" data-name="Group 14">
            <path id="Path_45" data-name="Path 45" d="M26.3,768.5H11a1,1,0,0,1,0-2H26.3a1,1,0,0,1,0,2Z" transform="translate(-10 -766.5)" fill="#0664ed"/>
          </g>
          <g id="Group_15" data-name="Group 15" transform="translate(0 19.995)">
            <path id="Path_46" data-name="Path 46" d="M26.3,1188.6H11a1,1,0,1,1,0-2H26.3a1,1,0,1,1,0,2Z" transform="translate(-10 -1186.6)" fill="#0664ed"/>
          </g>
        </g>
      </g>
    </g>
  </g>
  <g id="Group_21" data-name="Group 21" transform="translate(44.087 13.931)">
    <path id="Path_47" data-name="Path 47" d="M963.082,564.986h-24.83a1.954,1.954,0,0,1-1.951-1.951V529.451a1.954,1.954,0,0,1,1.951-1.951h24.83a1.954,1.954,0,0,1,1.951,1.951v33.583A1.954,1.954,0,0,1,963.082,564.986Zm-24.783-2h24.735V529.494h-24.74v33.493Z" transform="translate(-936.3 -527.5)" fill="#0664ed"/>
  </g>
  <g id="Group_22" data-name="Group 22" transform="translate(47.414 17.258)">
    <path id="Path_48" data-name="Path 48" d="M1027.275,626.271H1007.2a1,1,0,0,1-1-1V598.4a1,1,0,0,1,1-1h20.076a1,1,0,0,1,1,1v26.872A1,1,0,0,1,1027.275,626.271Zm-19.071-2h18.072V599.4H1008.2v24.873Z" transform="translate(-1006.2 -597.4)" fill="#0664ed"/>
  </g>
  <g id="Group_23" data-name="Group 23" transform="translate(57.504 46.829)">
    <circle id="Ellipse_7" data-name="Ellipse 7" cx="0.947" cy="0.947" r="0.947" fill="#0664ed"/>
  </g>
</svg>
