<svg xmlns="http://www.w3.org/2000/svg" width="54.273" height="51.417" viewBox="0 0 54.273 51.417">
  <g id="Online_Shopping" data-name="Online Shopping" transform="translate(-6 -8)">
    <path id="Path_66" data-name="Path 66" d="M56.7,8H9.571A3.575,3.575,0,0,0,6,11.571V55.846a3.575,3.575,0,0,0,3.571,3.571H56.7a3.575,3.575,0,0,0,3.571-3.571V11.571A3.575,3.575,0,0,0,56.7,8ZM9.571,9.428H56.7a2.145,2.145,0,0,1,2.142,2.142v5H7.428v-5A2.145,2.145,0,0,1,9.571,9.428ZM56.7,57.989H9.571a2.145,2.145,0,0,1-2.142-2.142V18H58.845V55.846A2.145,2.145,0,0,1,56.7,57.989Z" fill="#0664ed"/>
    <path id="Path_67" data-name="Path 67" d="M14.142,16.285A2.142,2.142,0,1,0,12,14.142,2.142,2.142,0,0,0,14.142,16.285Zm0-2.856a.714.714,0,1,1-.714.714A.714.714,0,0,1,14.142,13.428Z" transform="translate(-1.715 -1.144)" fill="#0664ed"/>
    <path id="Path_68" data-name="Path 68" d="M22.142,16.285A2.142,2.142,0,1,0,20,14.142,2.142,2.142,0,0,0,22.142,16.285Zm0-2.856a.714.714,0,1,1-.714.714.714.714,0,0,1,.714-.714Z" transform="translate(-4.002 -1.144)" fill="#0664ed"/>
    <path id="Path_69" data-name="Path 69" d="M30.142,16.285A2.142,2.142,0,1,0,28,14.142,2.142,2.142,0,0,0,30.142,16.285Zm0-2.856a.714.714,0,1,1-.714.714A.714.714,0,0,1,30.142,13.428Z" transform="translate(-6.289 -1.144)" fill="#0664ed"/>
    <path id="Path_70" data-name="Path 70" d="M54.714,15.428H69A.714.714,0,0,0,69,14H54.714a.714.714,0,0,0,0,1.428Z" transform="translate(-13.722 -1.715)" fill="#0664ed"/>
    <path id="Path_71" data-name="Path 71" d="M52.851,36.571H35A.714.714,0,1,0,35,38H51.9l-3.15,10.712H36.257L32.116,33.526A.714.714,0,0,0,31.427,33H25.714a.714.714,0,0,0,0,1.428h5.168l3.9,14.282H30.713a2.142,2.142,0,0,0,0,4.285h3.254a2.824,2.824,0,0,0-.4,1.428,2.856,2.856,0,1,0,5.713,0,2.824,2.824,0,0,0-.4-1.428h5.079a2.824,2.824,0,0,0-.4,1.428,2.856,2.856,0,1,0,5.713,0,2.824,2.824,0,0,0-.4-1.428h3.254a.714.714,0,0,0,0-1.428H30.713a.714.714,0,0,1,0-1.428H49.28a.714.714,0,0,0,.685-.513l3.571-12.14a.714.714,0,0,0-.685-.916Zm-15,17.853A1.428,1.428,0,1,1,36.426,53,1.428,1.428,0,0,1,37.854,54.424Zm10,0A1.428,1.428,0,1,1,46.424,53,1.428,1.428,0,0,1,47.852,54.424Z" transform="translate(-5.432 -7.147)" fill="#0664ed"/>
    <path id="Path_72" data-name="Path 72" d="M25.569,39.714A.714.714,0,0,0,24.855,39H17.714a.714.714,0,1,0,0,1.428h7.141A.714.714,0,0,0,25.569,39.714Z" transform="translate(-3.145 -8.862)" fill="#0664ed"/>
    <path id="Path_73" data-name="Path 73" d="M28.855,44.714A.714.714,0,0,0,28.141,44H21.714a.714.714,0,1,0,0,1.428h6.427A.714.714,0,0,0,28.855,44.714Z" transform="translate(-4.288 -10.292)" fill="#0664ed"/>
    <path id="Path_74" data-name="Path 74" d="M32.141,49.714A.714.714,0,0,0,31.427,49H25.714a.714.714,0,1,0,0,1.428h5.713A.714.714,0,0,0,32.141,49.714Z" transform="translate(-5.432 -11.721)" fill="#0664ed"/>
  </g>
</svg>
