<svg xmlns="http://www.w3.org/2000/svg" width="51.417" height="51.417" viewBox="0 0 51.417 51.417">
  <g id="ui" transform="translate(-0.5)">
    <path id="Path_75" data-name="Path 75" d="M144.694,368H142.98v3.428H127.555v1.714H142.98v2.571a2.571,2.571,0,0,1-2.571,2.571H121.556A2.58,2.58,0,0,1,119.328,377l-1.484.857A4.3,4.3,0,0,0,121.556,380h18.853a4.29,4.29,0,0,0,4.285-4.285Zm0,0" transform="translate(-104.774 -328.58)" fill="#0664ed"/>
    <path id="Path_76" data-name="Path 76" d="M232.5,432h1.714v1.714H232.5Zm0,0" transform="translate(-207.149 -385.725)" fill="#0664ed"/>
    <path id="Path_77" data-name="Path 77" d="M51.922,23.138V21.424H49.308a11.142,11.142,0,0,0-10.24-10.24V8.569H37.354v2.614a11.138,11.138,0,0,0-1.714.267v-4.6H49.351V5.142H35.64V4.285a2.571,2.571,0,0,1,2.571-2.571H57.064a2.57,2.57,0,0,1,1.7.643L59.9,1.071A4.279,4.279,0,0,0,57.064,0H38.211a4.29,4.29,0,0,0-4.285,4.285V12a11.155,11.155,0,0,0-6.812,9.426H24.5v1.714h2.616A11.091,11.091,0,0,0,37.354,33.382v2.61h1.714v-2.61A11.091,11.091,0,0,0,49.306,23.138ZM37.354,29.993v1.675a9.391,9.391,0,0,1-3.428-.989V29.136a4.285,4.285,0,0,1,8.569,0v1.542a9.4,9.4,0,0,1-3.428.992V29.993ZM35.64,20.567a2.571,2.571,0,1,1,2.571,2.571A2.571,2.571,0,0,1,35.64,20.567Zm8.855,8.741c-.092.085-.191.154-.285.233v-.4a6,6,0,0,0-3.238-5.32,4.285,4.285,0,1,0-5.521,0,6,6,0,0,0-3.238,5.32v.409c-.095-.078-.194-.151-.285-.233a9.431,9.431,0,0,1-3.1-6.174H30.5V21.424h-1.67A9.436,9.436,0,0,1,37.354,12.9v1.67h1.714V12.9a9.436,9.436,0,0,1,8.526,8.526h-1.67v1.714h1.668a9.431,9.431,0,0,1-3.1,6.174Zm0,0" transform="translate(-21.429 0)" fill="#0664ed"/>
    <path id="Path_78" data-name="Path 78" d="M292.21,44a.857.857,0,0,0,.857-.857V32.857A.857.857,0,0,0,292.21,32H273.357a.857.857,0,0,0-.857.857V43.14a.857.857,0,0,0,.857.857Zm-18-10.283h17.139v8.569H274.214Zm0,0" transform="translate(-242.864 -28.572)" fill="#0664ed"/>
    <path id="Path_79" data-name="Path 79" d="M304.5,64h3.428v1.714H304.5Zm0,0" transform="translate(-271.436 -57.144)" fill="#0664ed"/>
    <path id="Path_80" data-name="Path 80" d="M352.5,64h8.569v1.714H352.5Zm0,0" transform="translate(-314.294 -57.144)" fill="#0664ed"/>
    <path id="Path_81" data-name="Path 81" d="M304.5,96h13.711v1.714H304.5Zm0,0" transform="translate(-271.436 -85.717)" fill="#0664ed"/>
    <path id="Path_82" data-name="Path 82" d="M263.48,160a2.717,2.717,0,0,0-1.8.685l-7.475,6.59V160h-1.714v8.569h.248l-4.875,4.3a6,6,0,0,0-5.656,5.981v1.512a2.228,2.228,0,0,1-1.24,2.006.857.857,0,0,0,.383,1.624h6a6,6,0,0,0,5.981-5.656l12.191-13.816A2.723,2.723,0,0,0,263.48,160ZM247.349,182.28H243.43a3.953,3.953,0,0,0,.491-1.916v-1.512a4.29,4.29,0,0,1,3.942-4.271l3.757,3.757A4.29,4.29,0,0,1,247.349,182.28Zm16.887-18.891-11.784,13.356-3-2.994,13.356-11.785a1.009,1.009,0,0,1,1.424,1.424Zm0,0" transform="translate(-214.285 -142.861)" fill="#0664ed"/>
    <path id="Path_83" data-name="Path 83" d="M1.357,332.854H20.21a.857.857,0,0,0,.857-.857v-6.856a.857.857,0,0,0-.857-.857h-6V320H12.5v4.285H1.357a.857.857,0,0,0-.857.857V332A.857.857,0,0,0,1.357,332.854ZM2.214,326H19.353v5.142H2.214Zm0,0" transform="translate(0 -285.722)" fill="#0664ed"/>
    <path id="Path_84" data-name="Path 84" d="M32.5,392h4.285v1.714H32.5Zm0,0" transform="translate(-28.572 -350.01)" fill="#0664ed"/>
    <path id="Path_85" data-name="Path 85" d="M88.5,392h7.713v1.714H88.5Zm0,0" transform="translate(-78.574 -350.01)" fill="#0664ed"/>
    <path id="Path_86" data-name="Path 86" d="M1.357,40.569H9.926a.857.857,0,0,0,.857-.857V32.857A.857.857,0,0,0,9.926,32H1.357a.857.857,0,0,0-.857.857v6.856A.857.857,0,0,0,1.357,40.569Zm.857-6.856H9.069v5.142H2.214Zm0,0" transform="translate(0 -28.572)" fill="#0664ed"/>
    <path id="Path_87" data-name="Path 87" d="M32.5,64h3.428v1.714H32.5Zm0,0" transform="translate(-28.572 -57.144)" fill="#0664ed"/>
  </g>
</svg>
