<svg id="Group_113" data-name="Group 113" xmlns="http://www.w3.org/2000/svg" width="62.186" height="51.417" viewBox="0 0 62.186 51.417">
  <g id="Group_51" data-name="Group 51">
    <path id="Path_58" data-name="Path 58" d="M68.214,151.538a.969.969,0,0,1-.972-.972V143.4a1.457,1.457,0,0,0-1.457-1.457H10.4A1.457,1.457,0,0,0,8.943,143.4v7.166a.972.972,0,1,1-1.943,0V143.4a3.406,3.406,0,0,1,3.4-3.4H65.785a3.406,3.406,0,0,1,3.4,3.4v7.166A.969.969,0,0,1,68.214,151.538Z" transform="translate(-7 -140)" fill="#0664ed"/>
  </g>
  <g id="Group_52" data-name="Group 52" transform="translate(0 9.595)">
    <path id="Path_59" data-name="Path 59" d="M65.785,418.822H10.4a3.406,3.406,0,0,1-3.4-3.4V377.972A.969.969,0,0,1,7.972,377H68.214a.969.969,0,0,1,.972.972v37.449A3.406,3.406,0,0,1,65.785,418.822ZM8.943,378.943v36.478a1.457,1.457,0,0,0,1.457,1.457H65.785a1.457,1.457,0,0,0,1.457-1.457V378.943Z" transform="translate(-7 -377)" fill="#0664ed"/>
  </g>
  <g id="Group_57" data-name="Group 57" transform="translate(8.845 25.177)">
    <g id="Group_53" data-name="Group 53" transform="translate(15.802 0.008)">
      <path id="Path_60" data-name="Path 60" d="M624.958,772.72a.969.969,0,0,1-.927-.68l-1.81-5.757-1.81,5.761a.972.972,0,0,1-1.854,0l-2.737-8.7a.972.972,0,1,1,1.854-.583l1.81,5.761,1.81-5.761a.972.972,0,0,1,1.854,0l1.81,5.761,1.81-5.761a.972.972,0,1,1,1.854.583l-2.737,8.7A.971.971,0,0,1,624.958,772.72Z" transform="translate(-615.775 -762.075)" fill="#0664ed"/>
    </g>
    <g id="Group_56" data-name="Group 56" transform="translate(0 0)">
      <g id="Group_54" data-name="Group 54">
        <path id="Path_61" data-name="Path 61" d="M234.658,772.536a.973.973,0,0,1-.927-.68l-1.81-5.757-1.81,5.761a.972.972,0,0,1-1.854,0l-2.737-8.7a.972.972,0,1,1,1.854-.583l1.806,5.753,1.81-5.761a.972.972,0,0,1,1.854,0l1.81,5.761,1.81-5.761a.972.972,0,1,1,1.854.583l-2.737,8.7A.96.96,0,0,1,234.658,772.536Z" transform="translate(-225.475 -761.884)" fill="#0664ed"/>
      </g>
      <g id="Group_55" data-name="Group 55" transform="translate(31.607 0)">
        <path id="Path_62" data-name="Path 62" d="M1015.358,772.536a.969.969,0,0,1-.927-.68l-1.81-5.761-1.81,5.761a.972.972,0,0,1-1.854,0l-2.737-8.7a.972.972,0,1,1,1.854-.583l1.81,5.761,1.81-5.761a.972.972,0,0,1,1.854,0l1.81,5.757,1.81-5.761a.972.972,0,0,1,1.854.583l-2.737,8.7A.976.976,0,0,1,1015.358,772.536Z" transform="translate(-1006.175 -761.884)" fill="#0664ed"/>
      </g>
    </g>
  </g>
  <g id="Group_61" data-name="Group 61" transform="translate(7.125 4.352)">
    <g id="Group_58" data-name="Group 58">
      <path id="Path_63" data-name="Path 63" d="M184.417,250.334a1.417,1.417,0,1,1,1.417-1.417A1.419,1.419,0,0,1,184.417,250.334Z" transform="translate(-183 -247.5)" fill="#0664ed"/>
    </g>
    <g id="Group_59" data-name="Group 59" transform="translate(5.587)">
      <path id="Path_64" data-name="Path 64" d="M322.417,250.334a1.417,1.417,0,1,1,1.417-1.417A1.419,1.419,0,0,1,322.417,250.334Z" transform="translate(-321 -247.5)" fill="#0664ed"/>
    </g>
    <g id="Group_60" data-name="Group 60" transform="translate(11.174)">
      <path id="Path_65" data-name="Path 65" d="M460.417,250.334a1.417,1.417,0,1,1,1.417-1.417A1.419,1.419,0,0,1,460.417,250.334Z" transform="translate(-459 -247.5)" fill="#0664ed"/>
    </g>
  </g>
</svg>
