<svg xmlns="http://www.w3.org/2000/svg" width="27.825" height="35.774" viewBox="0 0 27.825 35.774">
  <path id="safety-icon" d="M203.211-804.226a3.1,3.1,0,0,1-2.272-.938,3.1,3.1,0,0,1-.938-2.272v-17.429a3.1,3.1,0,0,1,.938-2.272,3.1,3.1,0,0,1,2.272-.938h2.752v-3.975a7.67,7.67,0,0,1,2.314-5.636A7.67,7.67,0,0,1,213.912-840a7.67,7.67,0,0,1,5.636,2.314,7.67,7.67,0,0,1,2.314,5.636v3.975h2.752a3.1,3.1,0,0,1,2.272.938,3.1,3.1,0,0,1,.938,2.272v17.429a3.1,3.1,0,0,1-.938,2.272,3.1,3.1,0,0,1-2.272.938Zm0-1.987h21.4a1.19,1.19,0,0,0,.879-.344,1.19,1.19,0,0,0,.344-.879v-17.429a1.19,1.19,0,0,0-.344-.879,1.19,1.19,0,0,0-.879-.344h-21.4a1.19,1.19,0,0,0-.879.344,1.19,1.19,0,0,0-.344.879v17.429a1.19,1.19,0,0,0,.344.879A1.19,1.19,0,0,0,203.211-806.213Zm10.7-6.956a2.881,2.881,0,0,0,2.119-.862,2.881,2.881,0,0,0,.862-2.119,2.881,2.881,0,0,0-.862-2.119,2.881,2.881,0,0,0-2.119-.862,2.881,2.881,0,0,0-2.119.862,2.881,2.881,0,0,0-.862,2.119,2.881,2.881,0,0,0,.862,2.119A2.881,2.881,0,0,0,213.912-813.169Zm-5.962-14.906h11.925v-3.975a5.75,5.75,0,0,0-1.739-4.223,5.75,5.75,0,0,0-4.223-1.739,5.75,5.75,0,0,0-4.223,1.739,5.75,5.75,0,0,0-1.739,4.223Zm-5.962,21.862v0Z" transform="translate(-200 840)" fill="#0664ed"/>
</svg>
