<svg xmlns="http://www.w3.org/2000/svg" width="35.774" height="35.774" viewBox="0 0 35.774 35.774">
  <path id="pricing-icon" d="M136.863-808.965h1.949V-811.3a8.368,8.368,0,0,0,4.1-1.536,4.767,4.767,0,0,0,1.961-4.212,5.264,5.264,0,0,0-1.269-3.558,11.793,11.793,0,0,0-4.846-2.763,14.276,14.276,0,0,1-4.2-1.968,2.989,2.989,0,0,1-.913-2.343,3.2,3.2,0,0,1,1.187-2.534,4.7,4.7,0,0,1,3.155-1.013,4.35,4.35,0,0,1,2.523.694,5.476,5.476,0,0,1,1.636,1.76l1.728-.68a6.341,6.341,0,0,0-2.051-2.4,5.611,5.611,0,0,0-2.91-1.078v-2.331h-1.949v2.331a6.469,6.469,0,0,0-3.933,1.938,4.89,4.89,0,0,0-1.334,3.314,4.527,4.527,0,0,0,1.347,3.432,13.256,13.256,0,0,0,4.546,2.446,15.3,15.3,0,0,1,4.309,2.133,3.281,3.281,0,0,1,1.1,2.622,3.254,3.254,0,0,1-1.531,3.021,6.252,6.252,0,0,1-3.285.923,5.158,5.158,0,0,1-3.1-1,6.872,6.872,0,0,1-2.207-2.845l-1.751.757a7.8,7.8,0,0,0,2.276,3.182,8.532,8.532,0,0,0,3.457,1.611Zm1.024,4.739a17.356,17.356,0,0,1-6.968-1.412,18.118,18.118,0,0,1-5.68-3.828,18.118,18.118,0,0,1-3.828-5.68A17.357,17.357,0,0,1,120-822.113a17.357,17.357,0,0,1,1.412-6.968,18.118,18.118,0,0,1,3.828-5.68,18.119,18.119,0,0,1,5.68-3.828A17.356,17.356,0,0,1,137.887-840a17.356,17.356,0,0,1,6.968,1.412,18.119,18.119,0,0,1,5.68,3.828,18.118,18.118,0,0,1,3.828,5.68,17.357,17.357,0,0,1,1.412,6.968,17.357,17.357,0,0,1-1.412,6.968,18.118,18.118,0,0,1-3.828,5.68,18.119,18.119,0,0,1-5.68,3.828A17.357,17.357,0,0,1,137.887-804.226Zm0-1.987a15.345,15.345,0,0,0,11.279-4.621,15.345,15.345,0,0,0,4.621-11.279,15.345,15.345,0,0,0-4.621-11.279,15.345,15.345,0,0,0-11.279-4.621,15.345,15.345,0,0,0-11.279,4.621,15.345,15.345,0,0,0-4.621,11.279,15.345,15.345,0,0,0,4.621,11.279A15.345,15.345,0,0,0,137.887-806.213ZM137.887-822.113Z" transform="translate(-120 840)" fill="#0664ed"/>
</svg>
