<svg xmlns="http://www.w3.org/2000/svg" width="35.774" height="35.774" viewBox="0 0 35.774 35.774">
  <path id="check-circle" d="M135.028-814.346l12.712-12.712-1.407-1.407-11.306,11.306-5.664-5.664-1.407,1.406,7.071,7.071Zm2.866,10.121a17.433,17.433,0,0,1-6.976-1.408,18.075,18.075,0,0,1-5.682-3.822,18.056,18.056,0,0,1-3.826-5.677A17.4,17.4,0,0,1,120-822.106a17.433,17.433,0,0,1,1.408-6.976,18.076,18.076,0,0,1,3.822-5.682,18.056,18.056,0,0,1,5.677-3.825A17.4,17.4,0,0,1,137.881-840a17.433,17.433,0,0,1,6.977,1.408,18.075,18.075,0,0,1,5.682,3.822,18.056,18.056,0,0,1,3.826,5.677,17.4,17.4,0,0,1,1.409,6.974,17.434,17.434,0,0,1-1.408,6.976,18.077,18.077,0,0,1-3.822,5.682,18.057,18.057,0,0,1-5.677,3.826A17.4,17.4,0,0,1,137.894-804.226Zm-.007-1.987a15.346,15.346,0,0,0,11.279-4.621,15.345,15.345,0,0,0,4.621-11.279,15.345,15.345,0,0,0-4.621-11.279,15.345,15.345,0,0,0-11.279-4.621,15.345,15.345,0,0,0-11.279,4.621,15.345,15.345,0,0,0-4.621,11.279,15.345,15.345,0,0,0,4.621,11.279A15.346,15.346,0,0,0,137.887-806.213ZM137.887-822.113Z" transform="translate(-120 840)" fill="#0664ed"/>
</svg>
