<svg id="cytat" xmlns="http://www.w3.org/2000/svg" width="36.275" height="32.02" viewBox="0 0 36.275 32.02">
  <path id="Path_49" data-name="Path 49" d="M569.922,57.2h-11.31a1.861,1.861,0,0,0-1.86,1.86v11.31a1.861,1.861,0,0,0,1.86,1.86h5.413a12.309,12.309,0,0,1-2.061,7.113,11.207,11.207,0,0,1-4.662,3.49,1.857,1.857,0,0,0-.923,2.5l1.339,2.827a1.86,1.86,0,0,0,2.422.908,20.682,20.682,0,0,0,6.239-4.048,15.705,15.705,0,0,0,4.252-6.767,36.661,36.661,0,0,0,1.15-10.3V59.057A1.861,1.861,0,0,0,569.922,57.2Z" transform="translate(-535.507 -57.197)" fill="#0664ed"/>
  <path id="Path_50" data-name="Path 50" d="M3.944,89.055a21.03,21.03,0,0,0,6.209-4.04,15.622,15.622,0,0,0,4.278-6.741,36.616,36.616,0,0,0,1.15-10.324V59.057a1.861,1.861,0,0,0-1.86-1.86H2.411a1.861,1.861,0,0,0-1.86,1.86v11.31a1.861,1.861,0,0,0,1.86,1.86H7.824a12.309,12.309,0,0,1-2.061,7.113A11.207,11.207,0,0,1,1.1,82.83a1.858,1.858,0,0,0-.923,2.5l1.336,2.82A1.865,1.865,0,0,0,3.944,89.055Z" transform="translate(0.001 -57.197)" fill="#0664ed"/>
</svg>
