<svg xmlns="http://www.w3.org/2000/svg" width="26.03" height="35.774" viewBox="0 0 26.03 35.774">
  <path id="progres" d="M181.275-868.861a12.9,12.9,0,0,1-.948-2.666,12.172,12.172,0,0,1-.327-2.807,12.675,12.675,0,0,1,3.8-9.274,12.5,12.5,0,0,1,9.214-3.828h2.406l-3.644-3.644L193-892.308l5.74,5.74-5.74,5.74-1.228-1.228,3.644-3.644h-2.406a10.844,10.844,0,0,0-7.993,3.309,11,11,0,0,0-3.287,8.058,10.835,10.835,0,0,0,.21,2.1,10.786,10.786,0,0,0,.631,2.076Zm11.75,12.327-5.74-5.74,5.74-5.74,1.228,1.228-3.644,3.644h2.406a10.844,10.844,0,0,0,7.993-3.309,11,11,0,0,0,3.287-8.058,10.834,10.834,0,0,0-.21-2.1,10.791,10.791,0,0,0-.631-2.076l1.3-1.3a12.9,12.9,0,0,1,.948,2.666,12.171,12.171,0,0,1,.327,2.807,12.675,12.675,0,0,1-3.8,9.274,12.5,12.5,0,0,1-9.214,3.828h-2.406l3.644,3.644Z" transform="translate(-180 892.308)" fill="#0664ed"/>
</svg>
