<svg xmlns="http://www.w3.org/2000/svg" width="35.774" height="35.774" viewBox="0 0 35.774 35.774">
  <path id="accessibility-icon" d="M137.887-804.226a17.328,17.328,0,0,1-6.956-1.412,18.138,18.138,0,0,1-5.685-3.834,18.138,18.138,0,0,1-3.834-5.685A17.329,17.329,0,0,1,120-822.113a17.316,17.316,0,0,1,1.412-6.962,18.157,18.157,0,0,1,3.834-5.68,18.138,18.138,0,0,1,5.685-3.833A17.328,17.328,0,0,1,137.887-840a17.315,17.315,0,0,1,6.962,1.412,18.156,18.156,0,0,1,5.68,3.833,18.157,18.157,0,0,1,3.834,5.68,17.316,17.316,0,0,1,1.412,6.962,17.329,17.329,0,0,1-1.412,6.956,18.138,18.138,0,0,1-3.834,5.685,18.156,18.156,0,0,1-5.68,3.834A17.315,17.315,0,0,1,137.887-804.226Zm0-1.972a29.533,29.533,0,0,0,2.886-4.414,23.268,23.268,0,0,0,1.846-4.85h-9.463a27.2,27.2,0,0,0,1.884,5A22.553,22.553,0,0,0,137.887-806.2Zm-2.53-.3a18.574,18.574,0,0,1-2.54-4.053,23.312,23.312,0,0,1-1.71-4.913h-7.621a15.76,15.76,0,0,0,4.844,6.081A14.616,14.616,0,0,0,135.357-806.5Zm5.06,0a14.616,14.616,0,0,0,7.027-2.886,15.759,15.759,0,0,0,4.844-6.081h-7.621a34.046,34.046,0,0,1-1.9,4.951A23.731,23.731,0,0,1,140.417-806.5ZM122.675-817.45h8.019a23.632,23.632,0,0,1-.319-2.383q-.094-1.16-.094-2.28t.094-2.28a23.63,23.63,0,0,1,.319-2.383h-8.019a14.733,14.733,0,0,0-.506,2.249,16.344,16.344,0,0,0-.182,2.414,16.345,16.345,0,0,0,.182,2.414A14.734,14.734,0,0,0,122.675-817.45Zm10.006,0h10.411q.226-1.223.319-2.345t.094-2.318q0-1.2-.094-2.318t-.319-2.345H132.682q-.226,1.223-.319,2.345t-.094,2.318q0,1.2.094,2.318T132.682-817.45Zm12.4,0H153.1a14.732,14.732,0,0,0,.506-2.249,16.345,16.345,0,0,0,.182-2.414,16.344,16.344,0,0,0-.182-2.414,14.731,14.731,0,0,0-.506-2.249H145.08a23.639,23.639,0,0,1,.319,2.383q.094,1.16.094,2.28t-.094,2.28A23.642,23.642,0,0,1,145.08-817.45Zm-.413-11.313h7.621a15.7,15.7,0,0,0-4.787-6.081,15.479,15.479,0,0,0-7.084-2.924,23.331,23.331,0,0,1,2.5,4.187A27.445,27.445,0,0,1,144.668-828.763Zm-11.512,0h9.463a27.529,27.529,0,0,0-1.942-5.06,22.07,22.07,0,0,0-2.79-4.2,22.069,22.069,0,0,0-2.79,4.2,27.531,27.531,0,0,0-1.942,5.06Zm-9.67,0h7.621a27.446,27.446,0,0,1,1.749-4.818,23.331,23.331,0,0,1,2.5-4.187,15.269,15.269,0,0,0-7.1,2.943A16,16,0,0,0,123.486-828.763Z" transform="translate(-120 840)" fill="#0664ed"/>
</svg>
