<svg xmlns="http://www.w3.org/2000/svg" width="34.588" height="34.048" viewBox="0 0 34.588 34.048">
  <path id="aesthetic-icon" d="M172.572-753.165a7.783,7.783,0,0,1-2.6-.454,7.544,7.544,0,0,1-2.276-1.259,6.371,6.371,0,0,0,1.879-1.954,5.53,5.53,0,0,0,.775-3.012,4.3,4.3,0,0,1,1.284-3.168A4.3,4.3,0,0,1,174.8-764.3a4.3,4.3,0,0,1,3.168,1.284,4.3,4.3,0,0,1,1.284,3.168,6.43,6.43,0,0,1-1.962,4.716A6.43,6.43,0,0,1,172.572-753.165Zm0-2.226a4.287,4.287,0,0,0,3.144-1.308,4.287,4.287,0,0,0,1.308-3.144,2.154,2.154,0,0,0-.64-1.586,2.154,2.154,0,0,0-1.586-.64,2.154,2.154,0,0,0-1.586.64,2.154,2.154,0,0,0-.64,1.586,8.388,8.388,0,0,1-.306,2.337,10.521,10.521,0,0,1-.807,2,1.488,1.488,0,0,0,.556.111Zm10.83-9.161-3.81-3.81,18.21-18.21a2.175,2.175,0,0,1,1.53-.64,2.072,2.072,0,0,1,1.586.64l.693.693a2.136,2.136,0,0,1,.668,1.558,2.136,2.136,0,0,1-.668,1.558ZM174.8-759.843Z" transform="translate(-167.692 787.213)" fill="#0664ed"/>
</svg>
