<svg xmlns="http://www.w3.org/2000/svg" width="44.877" height="34.048" viewBox="0 0 44.877 34.048">
  <g id="hierarchy-icon" transform="translate(0 -50)">
    <g id="Group_123" data-name="Group 123" transform="translate(0 50)">
      <path id="Path_114" data-name="Path 114" d="M43.058,71.572H39.506V66.981a.819.819,0,0,0-.866-.866H23.3V62.389h3.552a1.777,1.777,0,0,0,1.819-1.819v-8.75A1.777,1.777,0,0,0,26.857,50H18.02A1.777,1.777,0,0,0,16.2,51.819v8.837a1.777,1.777,0,0,0,1.819,1.819h3.552v3.639H6.238a.819.819,0,0,0-.866.866v4.592H1.819A1.777,1.777,0,0,0,0,73.392v8.837a1.777,1.777,0,0,0,1.819,1.819h8.837a1.777,1.777,0,0,0,1.819-1.819V73.392a1.777,1.777,0,0,0-1.819-1.819H7.1V67.847H21.572v3.725H18.02A1.777,1.777,0,0,0,16.2,73.392v8.837a1.777,1.777,0,0,0,1.819,1.819h8.837a1.777,1.777,0,0,0,1.819-1.819V73.392a1.777,1.777,0,0,0-1.819-1.819H23.3V67.847H37.773v3.725H34.221A1.777,1.777,0,0,0,32.4,73.392v8.837a1.777,1.777,0,0,0,1.819,1.819h8.837a1.777,1.777,0,0,0,1.819-1.819V73.392A1.83,1.83,0,0,0,43.058,71.572ZM10.743,73.392c-.087-.087,0-.087,0,0v8.837c0,.087,0,.087-.087.087H1.819c-.087,0-.087,0-.087-.087V73.392c0-.087,0-.087.087-.087Zm16.2,0c-.087-.087,0-.087,0,0v8.837c0,.087,0,.087-.087.087H18.02c-.087,0-.087,0-.087-.087V73.392c0-.087,0-.087.087-.087ZM17.934,60.57c.087.087,0,.087,0,0v-8.75c0-.087,0-.087.087-.087h8.837c.087,0,.087,0,.087.087v8.837c0,.087,0,.087-.087.087ZM43.144,82.142c0,.087-.087.087,0,0l-8.923.087c-.087,0-.087,0-.087-.087v-8.75c0-.087,0-.087.087-.087h8.837c.087,0,.087,0,.087.087Z" transform="translate(0 -50)" fill="#0664ed"/>
    </g>
  </g>
</svg>
