<svg id="instagram" xmlns="http://www.w3.org/2000/svg" width="20.118" height="20.118" viewBox="0 0 20.118 20.118">
  <path id="Path_51" data-name="Path 51" d="M210.851,208.925A1.925,1.925,0,1,1,208.925,207,1.925,1.925,0,0,1,210.851,208.925Zm0,0" transform="translate(-198.866 -198.867)" fill="#033277"/>
  <path id="Path_52" data-name="Path 52" d="M144.723,136.817a1.913,1.913,0,0,0-1.1-1.1,3.2,3.2,0,0,0-1.072-.2c-.609-.028-.792-.034-2.334-.034s-1.725.006-2.334.034a3.2,3.2,0,0,0-1.072.2,1.914,1.914,0,0,0-1.1,1.1,3.2,3.2,0,0,0-.2,1.073c-.028.609-.034.792-.034,2.334s.006,1.725.034,2.334a3.2,3.2,0,0,0,.2,1.072,1.913,1.913,0,0,0,1.1,1.1,3.191,3.191,0,0,0,1.073.2c.609.028.792.034,2.334.034s1.725-.006,2.334-.034a3.191,3.191,0,0,0,1.073-.2,1.913,1.913,0,0,0,1.1-1.1,3.2,3.2,0,0,0,.2-1.072c.028-.609.034-.792.034-2.334s-.006-1.725-.034-2.334A3.191,3.191,0,0,0,144.723,136.817Zm-4.5,6.373a2.966,2.966,0,1,1,2.966-2.966A2.966,2.966,0,0,1,140.22,143.19Zm3.083-5.356a.693.693,0,1,1,.693-.693A.693.693,0,0,1,143.3,137.834Zm0,0" transform="translate(-130.161 -130.165)" fill="#033277"/>
  <path id="Path_53" data-name="Path 53" d="M10.059,0A10.059,10.059,0,1,0,20.118,10.059,10.06,10.06,0,0,0,10.059,0ZM15.8,12.44a4.238,4.238,0,0,1-.268,1.4,2.953,2.953,0,0,1-1.689,1.689,4.241,4.241,0,0,1-1.4.268c-.616.028-.813.035-2.381.035s-1.765-.007-2.382-.035a4.241,4.241,0,0,1-1.4-.268,2.953,2.953,0,0,1-1.689-1.689,4.237,4.237,0,0,1-.268-1.4c-.028-.616-.035-.813-.035-2.381s.007-1.765.035-2.381a4.238,4.238,0,0,1,.268-1.4A2.955,2.955,0,0,1,6.276,4.586a4.242,4.242,0,0,1,1.4-.268c.616-.028.813-.035,2.381-.035s1.765.007,2.381.035a4.243,4.243,0,0,1,1.4.268,2.954,2.954,0,0,1,1.689,1.689,4.237,4.237,0,0,1,.269,1.4c.028.616.035.813.035,2.381S15.829,11.824,15.8,12.44Zm0,0" transform="translate(0)" fill="#033277"/>
</svg>
