<svg xmlns="http://www.w3.org/2000/svg" width="29.278" height="35.822" viewBox="0 0 29.278 35.822">
  <path id="interface-icon" d="M202.893-844.178a2.789,2.789,0,0,1-2.048-.846,2.789,2.789,0,0,1-.846-2.048v-30.036a2.789,2.789,0,0,1,.846-2.048,2.789,2.789,0,0,1,2.048-.846H218.6a2.789,2.789,0,0,1,2.048.846,2.789,2.789,0,0,1,.846,2.048v5.924H219.7v-2.549H201.791v23.284H219.7V-853h1.791v5.924a2.789,2.789,0,0,1-.846,2.048,2.789,2.789,0,0,1-2.048.846Zm-1.1-4.478v1.584a1.054,1.054,0,0,0,.344.758,1.053,1.053,0,0,0,.758.344H218.6a1.053,1.053,0,0,0,.758-.344,1.054,1.054,0,0,0,.344-.758v-1.584Zm16.03-7.509-6.372-6.372,1.268-1.268,5.1,5.1,10.189-10.189,1.268,1.268Zm-16.03-19.358H219.7v-1.584a1.053,1.053,0,0,0-.344-.758,1.053,1.053,0,0,0-.758-.344H202.893a1.053,1.053,0,0,0-.758.344,1.053,1.053,0,0,0-.344.758Zm0,0v0Zm0,26.867v0Z" transform="translate(-200 880)" fill="#0664ed"/>
</svg>
