<?xml version="1.0" encoding="UTF-8"?><svg id="Warstwa_2" xmlns="http://www.w3.org/2000/svg" viewBox="0 0 39.99 28.33"><defs><style>.cls-1{fill:#0648ed;stroke-width:0px;}</style></defs><g id="Warstwa_1-2"><path class="cls-1" d="m26.78,0c-5.1-.04-9.78,2.83-12.05,7.4-3.37-1.31-7.17-.85-10.12,1.23C1.65,10.7-.08,14.11,0,17.73c0,5.85,4.75,10.59,10.6,10.6h14.74c8.09,0,14.64-6.56,14.65-14.65C40.07,6.27,34.18.18,26.78,0h0Zm-1.44,24.99h-14.74c-4.01,0-7.26-3.26-7.27-7.27-.06-3.65,2.47-6.83,6.04-7.59.48-.09.97-.14,1.47-.14,1.37,0,2.72.38,3.88,1.1.43.26.97.32,1.44.14.48-.18.85-.56,1.01-1.04,1.34-4.1,5.17-6.87,9.49-6.87.03,0,.06,0,.08,0,5.58.16,9.99,4.76,9.91,10.34,0,6.25-5.07,11.31-11.32,11.32h0Z"/></g></svg>