<svg xmlns="http://www.w3.org/2000/svg" width="36.048" height="36.048" viewBox="0 0 36.048 36.048">
  <path id="minimalism" d="M149.787-810.313a3.318,3.318,0,0,1-2.445-.981,3.318,3.318,0,0,1-.981-2.445v-22.836a3.318,3.318,0,0,1,.981-2.445,3.318,3.318,0,0,1,2.445-.981h22.836a3.318,3.318,0,0,1,2.445.981,3.318,3.318,0,0,1,.981,2.445v22.836a3.318,3.318,0,0,1-.981,2.445,3.318,3.318,0,0,1-2.445.981Zm0-2.12h22.836a1.247,1.247,0,0,0,.9-.408,1.247,1.247,0,0,0,.408-.9v-22.836a1.247,1.247,0,0,0-.408-.9,1.247,1.247,0,0,0-.9-.408H149.787a1.247,1.247,0,0,0-.9.408,1.247,1.247,0,0,0-.408.9v22.836a1.247,1.247,0,0,0,.408.9A1.248,1.248,0,0,0,149.787-812.434Zm-6.361,8.482a3.317,3.317,0,0,1-2.445-.981,3.318,3.318,0,0,1-.981-2.445v-24.956h2.12v24.956a1.247,1.247,0,0,0,.408.9,1.247,1.247,0,0,0,.9.408h24.956v2.12Zm5.057-33.927v0Z" transform="translate(-140 840)" fill="#0664ed"/>
</svg>
