<svg xmlns="http://www.w3.org/2000/svg" width="54.614" height="35.774" viewBox="0 0 54.614 35.774">
  <path id="predictable-icon" d="M110.4-732.058a9.668,9.668,0,0,0,7.119-2.936,9.73,9.73,0,0,0,2.924-7.131,9.668,9.668,0,0,0-2.936-7.119,9.73,9.73,0,0,0-7.131-2.924,9.668,9.668,0,0,0-7.119,2.936,9.73,9.73,0,0,0-2.924,7.131,9.668,9.668,0,0,0,2.936,7.119A9.73,9.73,0,0,0,110.4-732.058Zm-.012-2.625a7.165,7.165,0,0,1-5.263-2.167,7.165,7.165,0,0,1-2.167-5.263,7.165,7.165,0,0,1,2.167-5.263,7.165,7.165,0,0,1,5.263-2.167,7.165,7.165,0,0,1,5.263,2.167,7.165,7.165,0,0,1,2.167,5.263,7.165,7.165,0,0,1-2.167,5.263A7.165,7.165,0,0,1,110.384-734.683Zm.008,10.457a28.909,28.909,0,0,1-16.3-4.866,30.039,30.039,0,0,1-11.018-13.021,30.056,30.056,0,0,1,11.011-13.021A28.873,28.873,0,0,1,110.377-760a28.909,28.909,0,0,1,16.3,4.866,30.039,30.039,0,0,1,11.018,13.021,30.056,30.056,0,0,1-11.011,13.021A28.873,28.873,0,0,1,110.392-724.226ZM110.384-742.113Zm0,15.135a26.265,26.265,0,0,0,14.275-4.094,26.893,26.893,0,0,0,9.941-11.042,26.893,26.893,0,0,0-9.941-11.042,26.265,26.265,0,0,0-14.275-4.093,26.265,26.265,0,0,0-14.275,4.093,26.893,26.893,0,0,0-9.941,11.042,26.893,26.893,0,0,0,9.941,11.042A26.265,26.265,0,0,0,110.384-726.977Z" transform="translate(-83.077 760)" fill="#0664ed"/>
</svg>
