<svg xmlns="http://www.w3.org/2000/svg" width="86.221" height="15.242" viewBox="0 0 86.221 15.242">
  <g id="_5stars" data-name="5stars" transform="translate(0 -210.746)">
    <g id="Group_104" data-name="Group 104" transform="translate(0 210.746)">
      <g id="Group_103" data-name="Group 103">
        <path id="Path_107" data-name="Path 107" d="M15.919,216.449a1.1,1.1,0,0,0-.887-.746l-4.193-.609-1.874-3.786a1.143,1.143,0,0,0-1.968,0l-1.874,3.786L.94,215.7a1.1,1.1,0,0,0-.608,1.871l3.034,2.957L2.65,224.7a1.1,1.1,0,0,0,1.594,1.157l3.736-1.97,3.747,1.97a1.094,1.094,0,0,0,.51.126,1.116,1.116,0,0,0,.646-.208,1.1,1.1,0,0,0,.437-1.075l-.715-4.172,3.034-2.957A1.1,1.1,0,0,0,15.919,216.449Z" transform="translate(0 -210.746)" fill="#f76a10"/>
      </g>
    </g>
    <g id="Group_106" data-name="Group 106" transform="translate(17.563 210.746)">
      <g id="Group_105" data-name="Group 105" transform="translate(0 0)">
        <path id="Path_108" data-name="Path 108" d="M120.208,216.449a1.1,1.1,0,0,0-.887-.746l-4.193-.609-1.874-3.786a1.143,1.143,0,0,0-1.968,0l-1.874,3.786-4.183.609a1.1,1.1,0,0,0-.608,1.871l3.034,2.957-.716,4.172a1.1,1.1,0,0,0,1.594,1.157l3.736-1.97,3.747,1.97a1.094,1.094,0,0,0,.51.126,1.116,1.116,0,0,0,.646-.208,1.1,1.1,0,0,0,.437-1.075l-.715-4.172,3.034-2.957A1.1,1.1,0,0,0,120.208,216.449Z" transform="translate(-104.289 -210.746)" fill="#f76a10"/>
      </g>
    </g>
    <g id="Group_108" data-name="Group 108" transform="translate(35.125 210.746)">
      <g id="Group_107" data-name="Group 107" transform="translate(0 0)">
        <path id="Path_109" data-name="Path 109" d="M224.5,216.449a1.1,1.1,0,0,0-.887-.746l-4.193-.609-1.874-3.786a1.143,1.143,0,0,0-1.968,0l-1.874,3.786-4.183.609a1.1,1.1,0,0,0-.608,1.871l3.034,2.957-.716,4.172a1.1,1.1,0,0,0,1.594,1.157l3.736-1.97,3.747,1.97a1.094,1.094,0,0,0,.51.126,1.115,1.115,0,0,0,.646-.208,1.1,1.1,0,0,0,.437-1.075l-.715-4.172,3.034-2.957A1.1,1.1,0,0,0,224.5,216.449Z" transform="translate(-208.578 -210.746)" fill="#f76a10"/>
      </g>
    </g>
    <g id="Group_110" data-name="Group 110" transform="translate(52.687 210.746)">
      <g id="Group_109" data-name="Group 109" transform="translate(0 0)">
        <path id="Path_110" data-name="Path 110" d="M328.786,216.449a1.1,1.1,0,0,0-.887-.746l-4.193-.609-1.874-3.786a1.143,1.143,0,0,0-1.968,0l-1.874,3.786-4.183.609a1.1,1.1,0,0,0-.608,1.871l3.034,2.957-.716,4.172a1.1,1.1,0,0,0,1.594,1.157l3.736-1.97,3.747,1.97a1.094,1.094,0,0,0,.51.126,1.116,1.116,0,0,0,.647-.208,1.1,1.1,0,0,0,.437-1.075l-.714-4.172,3.034-2.957A1.1,1.1,0,0,0,328.786,216.449Z" transform="translate(-312.867 -210.746)" fill="#f76a10"/>
      </g>
    </g>
    <g id="Group_112" data-name="Group 112" transform="translate(70.25 210.746)">
      <g id="Group_111" data-name="Group 111">
        <path id="Path_111" data-name="Path 111" d="M433.075,216.449a1.1,1.1,0,0,0-.887-.746l-4.193-.609-1.874-3.786a1.143,1.143,0,0,0-1.968,0l-1.874,3.786-4.183.609a1.1,1.1,0,0,0-.608,1.871l3.034,2.957-.716,4.172a1.1,1.1,0,0,0,1.595,1.157l3.736-1.97,3.748,1.97a1.1,1.1,0,0,0,1.592-1.157l-.715-4.172,3.034-2.957A1.1,1.1,0,0,0,433.075,216.449Z" transform="translate(-417.156 -210.746)" fill="#f76a10"/>
      </g>
    </g>
  </g>
</svg>
