<svg xmlns="http://www.w3.org/2000/svg" width="20.307" height="35.774" viewBox="0 0 20.307 35.774">
  <g id="flash" transform="translate(-110.682)">
    <g id="Group_124" data-name="Group 124" transform="translate(110.682)">
      <path id="Path_115" data-name="Path 115" d="M130.924,12.283a.573.573,0,0,0-.537-.358h-7.036L130.328.894a.541.541,0,0,0,0-.6.626.626,0,0,0-.537-.3h-9.54a.626.626,0,0,0-.537.3l-8.944,17.887a.541.541,0,0,0,0,.6.712.712,0,0,0,.537.3h6.141L110.771,35a.6.6,0,0,0,.238.715.447.447,0,0,0,.3.06.677.677,0,0,0,.477-.179l19.08-22.657A.64.64,0,0,0,130.924,12.283Zm-17.529,19.5,5.485-13.117a.58.58,0,0,0-.06-.537.736.736,0,0,0-.477-.238h-6.082l8.347-16.695h8.109l-7.036,11.03a.541.541,0,0,0,0,.6.626.626,0,0,0,.537.3h6.916Z" transform="translate(-110.682)" fill="#0664ed"/>
    </g>
  </g>
</svg>
